<?xml version="1.0" standalone="no"?>
<!DOCTYPE svg PUBLIC "-//W3C//DTD SVG 20010904//EN"
 "http://www.w3.org/TR/2001/REC-SVG-20010904/DTD/svg10.dtd">
<svg version="1.0" xmlns="http://www.w3.org/2000/svg"
 width="348.000000pt" height="348.000000pt" viewBox="0 0 348.000000 348.000000"
 preserveAspectRatio="xMidYMid meet">

<g transform="translate(0.000000,348.000000) scale(0.100000,-0.100000)"
fill="#000000" stroke="none">
<path d="M337 3469 c-151 -36 -293 -189 -327 -353 -7 -35 -10 -491 -8 -1416
l3 -1365 22 -55 c46 -111 142 -207 253 -253 l55 -22 1365 -3 c924 -1 1381 1
1416 8 137 29 267 131 327 257 l32 68 0 1405 0 1405 -22 55 c-46 111 -142 207
-253 253 l-55 22 -1385 2 c-785 0 -1401 -3 -1423 -8z m2347 -888 c55 -52 40
-148 -29 -177 -51 -21 -1778 -21 -1830 0 -83 35 -83 162 0 197 11 4 428 7 927
6 l906 -2 26 -24z m-29 -635 c69 -29 84 -125 29 -177 l-26 -24 -918 0 -918 0
-26 24 c-54 51 -40 147 27 176 49 21 1781 22 1832 1z m28 -670 c51 -47 40
-148 -19 -175 -36 -16 -1812 -16 -1848 0 -59 27 -70 128 -19 175 l26 24 917 0
917 0 26 -24z"/>
</g>
</svg>
